<svg id="menu" xmlns="http://www.w3.org/2000/svg" viewBox="0 0 200 200"><defs><style>.cls-1{isolation:isolate;}</style></defs><title>menu_icon</title><g class="cls-1"><path d="M82.74,158.18H79.06V148a6.82,6.82,0,0,0-.83-3.82A3,3,0,0,0,75.58,143a3.3,3.3,0,0,0-2.7,1.48,5.81,5.81,0,0,0-1.13,3.62v10.09H68.09V147.72q0-4.72-3.53-4.73a3.28,3.28,0,0,0-2.71,1.43,6.06,6.06,0,0,0-1.07,3.7v10.06H57.1v-17.8h3.68v2.8h.08A6,6,0,0,1,66.31,140a4.88,4.88,0,0,1,4.94,3.56,6.25,6.25,0,0,1,5.8-3.56q5.69,0,5.69,7.23Z"/><path d="M102.13,150.29H90.22c.15,3.6,1.94,5.39,5.34,5.39a8.57,8.57,0,0,0,5.25-1.77V157a10.72,10.72,0,0,1-6.09,1.56,7.71,7.71,0,0,1-6-2.41,9.74,9.74,0,0,1-2.18-6.76,9.87,9.87,0,0,1,2.35-6.78A7.48,7.48,0,0,1,94.72,140a6.8,6.8,0,0,1,5.46,2.28,9.34,9.34,0,0,1,1.95,6.27Zm-3.57-2.75a5.49,5.49,0,0,0-1-3.5,3.48,3.48,0,0,0-2.86-1.23,3.88,3.88,0,0,0-2.91,1.3,6,6,0,0,0-1.54,3.43Z"/><path d="M121.19,158.18h-3.67V148.12q0-5.13-3.64-5.13a3.79,3.79,0,0,0-3,1.42,5.43,5.43,0,0,0-1.2,3.62v10.15H106v-17.8h3.68v2.91h.08a6.18,6.18,0,0,1,5.64-3.33q5.82,0,5.82,7.34Z"/><path d="M141,158.18h-3.66v-2.79h-.08a5.77,5.77,0,0,1-5.33,3.2q-6.13,0-6.13-7.54V140.38h3.67v10.2q0,5,3.73,5a3.72,3.72,0,0,0,3-1.37,5.32,5.32,0,0,0,1.17-3.58V140.38H141Z"/></g><polygon points="59.34 48.8 59.34 51.76 109.53 52.3 109.63 42.07 59.33 41.53 59.34 44.49 59.34 48.8"/><path d="M47,47.11l1.79.81.06-2.81-1.82.82C46.35,46.26,46.33,46.78,47,47.11Z"/><polygon points="56.19 51.14 57.75 51.17 57.74 42.15 56.13 42.11 50.69 44.45 50.69 48.51 56.19 51.14"/><path d="M110.86,52.31v1c1.78,0,3.68,0,5.64-.06v2l-20.11-.19A1.31,1.31,0,0,0,95,56.45v.29a1.32,1.32,0,0,0,1.32,1.34l29.42.28a1.31,1.31,0,0,0,1.34-1.31v-.29a1.33,1.33,0,0,0-1.32-1.34l-4.11,0V53.11c3.16-.14,6.39-.33,9.57-.58s6-.52,8.8-.84a87.56,87.56,0,0,0,13.39-2.34l0-3.14a87.42,87.42,0,0,0-13.42-2.61c-3.93-.53-8.24-1-12.56-1.34-5.78-.48-11.58-.79-16.54-.85v.67Z"/><polygon points="59.34 81.3 59.34 84.26 109.53 84.8 109.63 74.57 59.33 74.03 59.34 76.99 59.34 81.3"/><path d="M47,79.61l1.79.81.06-2.81-1.82.82C46.35,78.76,46.33,79.28,47,79.61Z"/><polygon points="56.19 83.64 57.75 83.67 57.74 74.64 56.13 74.61 50.69 76.95 50.69 81.01 56.19 83.64"/><path d="M110.86,84.81v1c1.78,0,3.68,0,5.64-.06v2l-20.11-.19A1.31,1.31,0,0,0,95,89v.29a1.32,1.32,0,0,0,1.32,1.34l29.42.28a1.31,1.31,0,0,0,1.34-1.31v-.29a1.33,1.33,0,0,0-1.32-1.34l-4.11,0V85.61c3.16-.14,6.39-.33,9.57-.58s6-.52,8.8-.84a87.56,87.56,0,0,0,13.39-2.34l0-3.14a87.42,87.42,0,0,0-13.42-2.61c-3.93-.53-8.24-1-12.56-1.34-5.78-.48-11.58-.79-16.54-.85v.67Z"/><polygon points="59.34 113.8 59.34 116.76 109.53 117.3 109.63 107.07 59.33 106.53 59.34 109.49 59.34 113.8"/><path d="M47,112.11l1.79.81.06-2.81-1.82.82C46.35,111.26,46.33,111.78,47,112.11Z"/><polygon points="56.19 116.14 57.75 116.17 57.74 107.14 56.13 107.11 50.69 109.45 50.69 113.51 56.19 116.14"/><path d="M110.86,117.31v1c1.78,0,3.68,0,5.64-.06v2l-20.11-.19A1.31,1.31,0,0,0,95,121.45v.29a1.32,1.32,0,0,0,1.32,1.34l29.42.28a1.31,1.31,0,0,0,1.34-1.31v-.29a1.33,1.33,0,0,0-1.32-1.34l-4.11,0v-2.27c3.16-.14,6.39-.33,9.57-.58s6-.52,8.8-.84a87.56,87.56,0,0,0,13.39-2.34l0-3.14a87.42,87.42,0,0,0-13.42-2.61c-3.93-.53-8.24-1-12.56-1.34-5.78-.48-11.58-.79-16.54-.85v.67Z"/></svg>