<svg id="Слой_1" data-name="Слой 1" xmlns="http://www.w3.org/2000/svg" viewBox="0 0 442.4 438"><defs><style>.cls-1{fill:none;stroke:#343434;stroke-miterlimit:10;stroke-width:8px;}</style></defs><title>rotate_works</title><path class="cls-1" d="M435.69,211.71l-.36-.41c-5.07-5.87-10.82-12.52-12.09-21.38-1.28-9,2.42-17.13,5.68-24.29l.05-.11a11.17,11.17,0,0,0-4.11-14l-.25-.16c-6.54-4.21-14-9-17.7-17.15s-2.53-17.05-1.43-24.81l0-.2a11.16,11.16,0,0,0-7.9-12.26l-.24-.07c-7.5-2.2-16-4.7-21.91-11.52s-7.2-15.61-8.32-23.35l0-.25a11.17,11.17,0,0,0-11-9.55h-.23c-7.83,0-16.7,0-24.32-4.94s-11.25-12.91-14.49-20l-.11-.25a11.15,11.15,0,0,0-13.26-6.07l-.16.05c-5.15,1.5-11,3.21-17,3.21a27.79,27.79,0,0,1-7.8-1.07c-8.6-2.53-14.38-9.17-19.47-15L259,7.84A11.14,11.14,0,0,0,244.6,5.77l-.07,0c-6.64,4.26-14.17,9.09-23.33,9.09s-16.69-4.83-23.33-9.09l-.07,0a11.18,11.18,0,0,0-14.45,2.08l-.21.24c-5.09,5.87-10.87,12.51-19.47,15a27.79,27.79,0,0,1-7.8,1.07c-6,0-11.84-1.71-17-3.21l-.16-.05A11.15,11.15,0,0,0,125.46,27l-.11.25c-3.24,7.09-6.92,15.14-14.49,20S94.37,52.19,86.54,52.2h-.23a11.17,11.17,0,0,0-11,9.55l0,.25c-1.12,7.74-2.39,16.51-8.32,23.35S52.53,94.67,45,96.87l-.24.07a11.15,11.15,0,0,0-7.9,12.26l0,.2c1.1,7.76,2.35,16.56-1.43,24.8s-11.15,13-17.7,17.16l-.24.16a11.15,11.15,0,0,0-4.11,14l.05.11c3.26,7.16,7,15.27,5.67,24.29-1.26,8.86-7,15.51-12.09,21.38l-.35.41a11.18,11.18,0,0,0,0,14.59l.36.41c5.07,5.86,10.82,12.52,12.08,21.37,1.29,9-2.41,17.14-5.67,24.29l-.05.11a11.15,11.15,0,0,0,4.11,14l.24.15c6.55,4.22,14,9,17.71,17.17s2.52,17,1.42,24.8l0,.19a11.16,11.16,0,0,0,7.89,12.27l.25.07c7.5,2.2,16,4.7,21.91,11.52s7.2,15.61,8.32,23.35l0,.25a11.15,11.15,0,0,0,11,9.55h.23c7.83,0,16.7,0,24.32,4.94s11.24,12.92,14.49,20l.11.25a11.15,11.15,0,0,0,13.26,6.07l.16-.05c5.15-1.5,11-3.2,17-3.2a27.84,27.84,0,0,1,7.8,1.07c8.6,2.52,14.38,9.16,19.47,15l.22.25a11.16,11.16,0,0,0,14.44,2.07l.07-.05c6.64-4.26,14.17-9.09,23.33-9.09s16.69,4.83,23.33,9.09l.07.05A11.16,11.16,0,0,0,259,430.17l.21-.25c5.1-5.86,10.88-12.51,19.48-15a27.74,27.74,0,0,1,7.8-1.07c6,0,11.84,1.7,17,3.2l.16.05A11.15,11.15,0,0,0,316.94,411a1.89,1.89,0,0,1,.11-.25c3.24-7.09,6.91-15.13,14.49-20s16.49-4.92,24.32-4.94h.23a11.15,11.15,0,0,0,11-9.55l0-.25c1.13-7.74,2.4-16.51,8.33-23.35s14.41-9.31,21.9-11.52l.25-.07a11.16,11.16,0,0,0,7.9-12.26l0-.2c-1.1-7.76-2.34-16.56,1.43-24.8s11.16-12.95,17.7-17.16l.24-.15a11.16,11.16,0,0,0,4.12-14l-.05-.11c-3.26-7.15-7-15.26-5.67-24.29,1.26-8.85,7-15.51,12.08-21.38l.36-.41A11.17,11.17,0,0,0,435.69,211.71Z"/></svg>