<svg id="圖層_1" data-name="圖層 1" xmlns="http://www.w3.org/2000/svg" viewBox="0 0 200 200"><defs><style>.cls-1{fill:#f6f6f6;fill-rule:evenodd;}</style></defs><title>rotate_inner_r</title><path id="WEB_BEGINNER_" data-name="WEB BEGINNER " class="cls-1" d="M32.53,74.57,35,70l-6-5c-1.06-.87-2.2-1.74-3.26-2.56l0-.1c1.25.49,2.6,1,3.92,1.36l7.49,2.28,2.55-4.67-14-11.11-1.92,3.53,6.49,4.83c1.5,1.06,3,2.17,4.58,3.26l-.06.1c-1.83-.6-3.64-1.23-5.38-1.78L21.6,57.88,19.9,61l6.18,5.42c1.42,1.18,2.91,2.4,4.4,3.59l-.05.08-5.24-2-7.57-2.87L15.55,69ZM43.24,57l7.84-8.31L48.5,46.25l-4.93,5.23-2.72-2.57,4-4.28-2.58-2.44-4.05,4.29-2.37-2.24,4.76-5L38.1,36.8l-7.66,8.12ZM53.77,46.37l5.5-3.72c3.17-2.15,4.8-5.19,2.78-8.17a4,4,0,0,0-4.9-1.68l0-.07a4.11,4.11,0,0,0-.23-4.44c-1.9-2.8-4.85-2-7.87.06L43.91,31.8ZM51.32,35.21l-2.1-3.12,1.44-1c1.47-1,2.45-1,3.15,0s.45,2.1-1,3.1Zm4.14,6.11-2.39-3.53,1.74-1.18c1.7-1.15,2.87-1.25,3.68-.06s.4,2.45-1.29,3.59Zm17.17-6L79,33.46c3.67-1.1,6.13-3.51,5.11-6.95a4,4,0,0,0-4.18-3.07l0-.09A4.12,4.12,0,0,0,81,19.05c-1-3.24-4-3.34-7.52-2.3L67.6,18.51Zm1-11.38-1.07-3.6,1.67-.5c1.7-.51,2.64-.25,3,.95s-.2,2.14-1.92,2.65Zm2.11,7.07L74.55,27l2-.6c2-.59,3.11-.34,3.52,1.05s-.35,2.45-2.3,3Zm12.75.11,11.39-.85-.26-3.54-7.17.54-.28-3.73,5.87-.43-.26-3.54-5.87.44-.24-3.26,6.91-.51-.27-3.49-11.12.83Zm22.7.75a8.8,8.8,0,0,0,6.13-1.24l1.24-8.14-6.47-1L111.58,25l2.76.43-.43,2.8a3,3,0,0,1-1.72.19c-3.23-.49-4.47-2.74-3.93-6.2s2.67-5.12,5.24-4.72a4.52,4.52,0,0,1,3,1.84L119.13,17a7.78,7.78,0,0,0-5.22-3.12c-4.65-.71-9.07,2-10,7.8s2.42,9.52,7.26,10.26Zm9.2,1.85,4,1.37,5.71-16.64-4-1.37Zm7.88,2.63,3.5,2,2.86-5.09c1-1.86,1.92-4.13,2.72-5.94l.1.06-.37,4.21-.37,9.54,3.75,2.11,8.64-15.34-3.5-2L142.76,31a54,54,0,0,0-2.7,5.95l-.1-.06.41-4.25.32-9.49-3.76-2.11Zm15.51,9.33,2.9,2.78,4-4.22c1.47-1.54,2.89-3.53,4.1-5.08l.09.09-1.42,4-2.72,9.14,3.11,3,12.16-12.71-2.9-2.78-4,4.2A55.54,55.54,0,0,0,155,49.18L155,49.1l1.45-4L159.07,36,156,33Zm12.62,13,6.22,9.58,3-1.93-3.91-6,3.14-2,3.2,4.94,3-1.93-3.19-4.94,2.74-1.78,3.77,5.82,2.93-1.9-6.06-9.37ZM179.1,70.43l.66,1.78c.7,1.88.56,3.07-1,3.65s-2.75-.12-3.44-2l-.66-1.77Zm-9.91,14.34,5.19-6.1a5.2,5.2,0,0,0,5.82,1.07c4-1.48,4.11-4.85,2.8-8.38l-2.24-6.06-16.51,6.11,1.47,4,5.81-2.15.71,1.91-4.69,5.19Z"/><path id="WEB_BEGINNER_2" data-name="WEB BEGINNER 2" class="cls-1" d="M167.35,124.49l-2.44,4.63,6.06,4.93c1.07.86,2.22,1.71,3.3,2.52l-.06.1c-1.25-.47-2.61-.93-3.94-1.3l-7.51-2.18-2.49,4.7,14.13,10.92,1.88-3.55-6.56-4.75c-1.51-1-3.05-2.12-4.63-3.19l.06-.11c1.84.57,3.65,1.18,5.41,1.71l7.95,2.11,1.65-3.13-6.25-5.34c-1.44-1.16-2.95-2.36-4.44-3.52l0-.09,5.27,2,7.6,2.76,2-3.82Zm-10.47,17.73-7.73,8.42,2.62,2.4,4.86-5.3,2.76,2.52-4,4.34L158,157l4-4.34,2.41,2.21L159.72,160l2.58,2.36,7.55-8.23ZM146.5,153l-5.45,3.8c-3.14,2.19-4.73,5.26-2.67,8.2a4,4,0,0,0,4.93,1.61l.05.08a4.11,4.11,0,0,0,.3,4.44c1.93,2.77,4.87,1.9,7.86-.18l5-3.52Zm2.6,11.13,2.15,3.09-1.44,1c-1.45,1-2.43,1.06-3.14,0s-.48-2.09,1-3.12Zm-4.22-6.05,2.44,3.49-1.73,1.2c-1.69,1.18-2.85,1.3-3.67.11s-.43-2.44,1.23-3.6Zm-17.09,6.19-6.34,2c-3.66,1.15-6.09,3.59-5,7a4,4,0,0,0,4.22,3l0,.09a4.13,4.13,0,0,0-1.05,4.32c1,3.22,4.08,3.28,7.56,2.19l5.86-1.84Zm-.86,11.4,1.12,3.59-1.67.52c-1.69.53-2.64.28-3-.91s.17-2.14,1.89-2.68Zm-2.21-7,1.27,4.06-2,.63c-2,.62-3.1.38-3.53-1s.32-2.45,2.26-3.06Zm-12.75.07-11.37,1,.31,3.53,7.15-.63.33,3.72-5.86.52.31,3.53,5.87-.52.28,3.25-6.9.61.31,3.49,11.11-1Zm-22.71-.44a8.67,8.67,0,0,0-6.11,1.33L82,177.72l6.49.9L89,175.2l-2.77-.39.4-2.81a3,3,0,0,1,1.72-.21c3.24.45,4.5,2.68,4,6.14s-2.6,5.16-5.18,4.8a4.46,4.46,0,0,1-3-1.8l-2.6,2.36a7.79,7.79,0,0,0,5.26,3.05c4.66.65,9-2.14,9.85-8s-2.55-9.48-7.4-10.15ZM80,166.52l-4-1.32-5.48,16.72,4,1.31ZM72.12,164l-3.53-1.92-2.8,5.13c-1,1.87-1.86,4.16-2.64,6l-.1-.06.33-4.21.24-9.54-3.78-2.06-8.42,15.45L55,174.69l2.79-5.12a56.63,56.63,0,0,0,2.61-6l.1.06-.35,4.25-.19,9.49,3.78,2.06Zm-15.64-9.11-2.94-2.74-4,4.27c-1.45,1.56-2.83,3.57-4,5.13l-.09-.08,1.36-4,2.6-9.17-3.15-2.94-12,12.88L37.21,161l4-4.26a57,57,0,0,0,4-5.15l.09.08-1.4,4-2.53,9.15,3.15,2.93Zm-12.8-12.83-6.35-9.5-2.95,2,4,6-3.1,2.08L32,137.68l-2.95,2,3.27,4.9-2.72,1.82-3.85-5.77-2.91,2,6.2,9.28Zm-22.83-11.4-.68-1.77c-.72-1.88-.6-3.06.95-3.66s2.74.08,3.47,2l.68,1.76Zm9.71-14.48-5.1,6.18a5.21,5.21,0,0,0-5.84-1c-4,1.53-4,4.9-2.68,8.41l2.32,6,16.43-6.34-1.53-4-5.78,2.23-.74-1.9,4.62-5.25Z"/><path id="XIAO_YUI" data-name="XIAO YUI" class="cls-1" d="M64.8,93.35h5.56l1.87-4.23c.5-1.13,1-2.27,1.48-3.61h.12c.58,1.34,1.08,2.48,1.6,3.61l2,4.23h5.8l-6-10.93,5.59-10.74h-5.5l-1.57,3.87c-.44,1-.9,2.16-1.4,3.55h-.12c-.61-1.4-1.11-2.53-1.57-3.55l-1.75-3.87h-5.8l5.62,10.51Zm21.29,0H91.3V71.68H86.09V93.35Zm15-9,.47-1.84c.55-2.15,1.13-4.69,1.66-7h.11c.59,2.21,1.14,4.81,1.72,7l.47,1.84Zm6.67,9h5.48L106.5,71.68h-6.23L93.54,93.35h5.3l1.26-5h6.4Zm16.69.4c5.91,0,9.93-4.25,9.93-11.35s-4-11.13-9.93-11.13-9.93,4-9.93,11.13,4,11.35,9.92,11.35Zm0-4.48c-2.85,0-4.6-2.65-4.6-6.87s1.75-6.67,4.6-6.67,4.63,2.47,4.63,6.67-1.78,6.87-4.64,6.87Zm-43.08,33.2h5.19v-7.66l6.55-14H87.66l-1.81,4.81c-.61,1.63-1.19,3.14-1.8,4.83h-.12l-1.75-4.83-1.8-4.81H74.85l6.52,14v7.66Zm22.63.41c5.77,0,8.68-3.29,8.68-10.6V100.8h-5v12c0,4.11-1.31,5.56-3.67,5.56s-3.61-1.45-3.61-5.56v-12H95.2v11.48C95.2,119.59,98.2,122.88,104,122.88Zm13.54-.41h5.22V100.8h-5.22v21.67Z"/></svg>