<svg id="Слой_1" data-name="Слой 1" xmlns="http://www.w3.org/2000/svg" viewBox="0 0 200 200"><defs><style>.cls-1{fill:#f93702;}</style></defs><title>rotate_r</title><circle class="cls-1" cx="100" cy="100" r="76.03" transform="translate(-14.73 17.31) rotate(-9.22)"/><path class="cls-1" d="M197.84,96.67l-.16-.18c-2.31-2.68-4.94-5.72-5.51-9.76s1.1-7.81,2.59-11.08l0-.05a5.08,5.08,0,0,0-1.88-6.38l-.11-.07c-3-1.93-6.37-4.1-8.07-7.83s-1.16-7.78-.65-11.32v-.09a5.1,5.1,0,0,0-3.61-5.59l-.11,0c-3.42-1-7.29-2.15-10-5.26s-3.28-7.12-3.8-10.65v-.11a5.09,5.09,0,0,0-5-4.36h-.1c-3.57,0-7.62,0-11.1-2.25s-5.13-5.89-6.6-9.13l-.06-.11a5.07,5.07,0,0,0-6-2.77l-.08,0a28.12,28.12,0,0,1-7.75,1.46,12.5,12.5,0,0,1-3.56-.49c-3.92-1.15-6.55-4.18-8.88-6.85l-.1-.12a5.09,5.09,0,0,0-6.59-.94l0,0c-3,1.94-6.46,4.14-10.64,4.14s-7.61-2.2-10.64-4.14l0,0a5.08,5.08,0,0,0-6.58.94l-.1.11c-2.32,2.68-5,5.71-8.88,6.86a12.5,12.5,0,0,1-3.56.49,28.12,28.12,0,0,1-7.75-1.46l-.08,0a5.08,5.08,0,0,0-6,2.76l0,.12c-1.48,3.23-3.16,6.9-6.61,9.13s-7.53,2.24-11.1,2.25h-.1a5.11,5.11,0,0,0-5,4.36v.11c-.51,3.53-1.09,7.53-3.8,10.65s-6.57,4.25-10,5.26l-.11,0a5.09,5.09,0,0,0-3.61,5.59V50c.51,3.54,1.07,7.56-.65,11.32s-5.09,5.9-8.07,7.83l-.11.07A5.07,5.07,0,0,0,5.22,75.6l0,.05c1.49,3.27,3.18,7,2.59,11.08s-3.2,7.08-5.51,9.76l-.16.18a5.1,5.1,0,0,0,0,6.66l.16.18c2.31,2.68,4.94,5.72,5.51,9.76s-1.1,7.81-2.59,11.08l0,.05a5.07,5.07,0,0,0,1.88,6.38l.11.07c3,1.93,6.37,4.1,8.07,7.83s1.16,7.78.65,11.32v.08a5.1,5.1,0,0,0,3.6,5.6l.12,0c3.42,1,7.29,2.15,10,5.26s3.28,7.12,3.8,10.65v.11a5.09,5.09,0,0,0,5,4.36h.1c3.57,0,7.62,0,11.1,2.25s5.13,5.89,6.6,9.13l.06.11a5.07,5.07,0,0,0,6,2.77l.08,0a28.12,28.12,0,0,1,7.75-1.46,12.5,12.5,0,0,1,3.56.49c3.92,1.15,6.55,4.18,8.88,6.85l.1.12a5.08,5.08,0,0,0,6.58.94l0,0c3-1.94,6.46-4.14,10.64-4.14s7.61,2.2,10.64,4.14l0,0a5.09,5.09,0,0,0,6.59-.94l.1-.11c2.32-2.68,5-5.71,8.88-6.86a12.5,12.5,0,0,1,3.56-.49,28.12,28.12,0,0,1,7.75,1.46l.07,0a5.08,5.08,0,0,0,6-2.77l.05-.11c1.48-3.23,3.16-6.9,6.61-9.13s7.53-2.24,11.1-2.25h.1a5.11,5.11,0,0,0,5-4.36v-.11c.51-3.53,1.09-7.53,3.8-10.65s6.57-4.25,10-5.26l.11,0a5.09,5.09,0,0,0,3.61-5.59V150c-.51-3.54-1.07-7.56.65-11.32s5.09-5.9,8.07-7.83l.11-.07a5.08,5.08,0,0,0,1.88-6.38l0-.05c-1.49-3.27-3.18-7-2.59-11.08s3.2-7.08,5.51-9.76l.16-.18A5.1,5.1,0,0,0,197.84,96.67ZM100,179.22A79.22,79.22,0,1,1,179.22,100,79.31,79.31,0,0,1,100,179.22Z"/></svg>