<svg id="圖層_1" data-name="圖層 1" xmlns="http://www.w3.org/2000/svg" viewBox="0 0 200 200"><defs><style>.cls-1{fill:#343434;fill-rule:evenodd;}</style></defs><title>rotate_l</title><path id="A_visual_designer_who_wants_to_learn_coding." data-name="A visual designer who wants to learn coding." class="cls-1" d="M44.12,36.52l-.55-1.1c-.65-1.29-1.44-2.77-2.15-4.1l0-.05c1.23.83,2.6,1.86,3.8,2.67l1,.7Zm7.09,1.55,2.68-2.33L41.37,28l-3,2.65,6,13.44,2.58-2.26-1.51-3,3.13-2.73Zm13.77-9,3.5-1.7L66.92,16.24,64,17.64l1,5c.22,1.06.45,2.19.72,3.32l-.08,0-2.17-2.62-3.33-3.88-3,1.47Zm8.38-3.72,3.16-1.1L73,14.15l-3.15,1.11ZM70.9,13.3a1.74,1.74,0,0,0-.81-3.38,1.61,1.61,0,0,0-.33.12,1.74,1.74,0,1,0,.79,3.38A1.45,1.45,0,0,0,70.9,13.3Zm11.54,9.59c2.85-.68,4-2.53,3.53-4.46S83.88,16.14,82.46,16c-1.17-.13-2.19-.14-2.34-.76s.19-.84.92-1a4.15,4.15,0,0,1,2.38.36l1-2.3a6.27,6.27,0,0,0-4.07-.44c-2.42.59-3.71,2.32-3.23,4.3.42,1.72,2.09,2.21,3.45,2.41,1.17.16,2.25.21,2.4.83s-.16.92-1,1.13A4.53,4.53,0,0,1,79,20l-1,2.39a6.92,6.92,0,0,0,4.37.5Zm9.66-1.74a4.18,4.18,0,0,0,3.18-2h.07l.38,1.44,2.73-.25-1-10.69-3.34.32.66,7a2,2,0,0,1-1.68,1.26c-.84.08-1.27-.3-1.42-1.78l-.58-6.2-3.34.32.62,6.61c.26,2.67,1.41,4.25,3.74,4Zm12-.48a4.61,4.61,0,0,0,3.14-1.17h.08l.18,1.09,2.73.15.34-6.09c.18-3.35-1.3-5-4.07-5.14a9,9,0,0,0-4.7,1.16l1,2.27a6,6,0,0,1,2.86-.79,1.4,1.4,0,0,1,1.54,1.22,2.09,2.09,0,0,1,0,.25c-4.21.22-6,1.35-6.18,3.61a3.11,3.11,0,0,0,2.75,3.42h.27Zm1.29-2.54a1,1,0,0,1-1.09-.8.59.59,0,0,1,0-.19c0-.75.75-1.32,2.86-1.48l-.1,1.71a2.12,2.12,0,0,1-1.66.76ZM115.91,22a4.74,4.74,0,0,0,1.68,0l0-2.5a2.31,2.31,0,0,1-.37,0c-.26,0-.56-.31-.45-1l2-11.56-3.3-.56-1.94,11.42c-.38,2.21.12,3.83,2.38,4.21Zm15.5,4.59a4.21,4.21,0,0,0,3.1-.09l.07,0-.18,1,2.51,1.07,5.92-13.87-3.1-1.32-1.41,3.3-.51,1.52a3.4,3.4,0,0,0-1.94-2c-2.05-.87-4.91.2-6.3,3.45s-.63,5.84,1.84,6.9Zm1.9-2.19c-1.06-.45-1.35-1.51-.54-3.41s1.9-2.28,2.75-1.92a2.39,2.39,0,0,1,1.28,1.24l-1.66,3.89a1.75,1.75,0,0,1-1.84.2Zm10.13,8.41a6.92,6.92,0,0,0,3.92,1l.12-2.3a4.31,4.31,0,0,1-2.28-.61A2.47,2.47,0,0,1,144,27.69L149.37,31a5.78,5.78,0,0,0,.88-1.14c1.55-2.5,1.46-5.2-1.17-6.83a5.28,5.28,0,0,0-7.3,2.1,5.24,5.24,0,0,0,1.66,7.65Zm1.68-7a2,2,0,0,1,2.65-.55,1.6,1.6,0,0,1,.46,2.48Zm6.23,12.7c2.26,1.86,4.43,1.67,5.68.14s.58-3.05-.13-4.29c-.61-1-1.21-1.83-.8-2.32s.78-.36,1.37.12a4.13,4.13,0,0,1,1.14,2.11l2.43-.58A6.22,6.22,0,0,0,159,30.16c-1.92-1.58-4.08-1.57-5.38,0-1.12,1.37-.51,3,.16,4.21.57,1,1.18,1.92.77,2.41s-.83.42-1.52-.14a4.53,4.53,0,0,1-1.37-2.6l-2.49.67a6.9,6.9,0,0,0,2.23,3.78Zm5.1,4.17L158.8,45l7.62-7.56-2.35-2.37Zm9.86-7.42a1.74,1.74,0,1,0-.14-2.57,1.75,1.75,0,0,0,0,2.47l.11.1Zm-6.59,17.69c2.31,2.93,5,3.77,6.8,2.37,1.52-1.2,1.23-2.88-.4-4.95L165.06,49c-.71-.9-.8-1.39-.41-1.69a.86.86,0,0,1,.8-.2,4.68,4.68,0,0,0,.63,1.11c1.47,1.86,3.51,2.68,5.48,1.13a2.86,2.86,0,0,0,.84-1l1,1.3,1.91-1.51L172.9,45a5.19,5.19,0,0,0-.85-1.5c-1.43-1.82-3.79-2.73-5.84-1.1a3.44,3.44,0,0,0-1.28,2.86l-.06,0a2.57,2.57,0,0,0-2.3.3,2.09,2.09,0,0,0-.85,1.92l-.07.06a2.38,2.38,0,0,0-2.61.11C157.53,48.91,158.18,51,159.72,52.93ZM167.67,47a1.71,1.71,0,0,1,.76-2.29,1.69,1.69,0,0,1,1.86.22A1.71,1.71,0,0,1,167.67,47Zm-6,5.06c-.86-1.08-1.12-2-.53-2.5a1.27,1.27,0,0,1,1.07-.2,5.28,5.28,0,0,0,.85,1.28l.63.8c.62.79.86,1.32.36,1.71S162.54,53.13,161.69,52.05ZM168,56.5l1.65,2.91,6.24-3.53A2.56,2.56,0,0,1,177.68,57c.42.74.23,1.3-1.05,2l-5.42,3.07L172.87,65l5.78-3.27c2.33-1.32,3.3-3,2.15-5.05a4.8,4.8,0,0,0-3.09-2.2l0-.07,1.06-.86-1.35-2.38Zm7.46,15.73A7,7,0,0,0,178,75.39l1.49-1.75a4.39,4.39,0,0,1-1.44-1.88,2.45,2.45,0,0,1,1-3.24l2.24,5.89a5.94,5.94,0,0,0,1.39-.37c2.76-1,4.32-3.25,3.22-6.14-.93-2.44-3.82-4-7.08-2.76a5.25,5.25,0,0,0-3.53,6.53,5.37,5.37,0,0,0,.21.56Zm5.58-4.54a2,2,0,0,1,2.44,1.17,1.6,1.6,0,0,1-.78,2.13,1.27,1.27,0,0,1-.36.12ZM177.82,78.4l.78,3.25,6-1.42A2.63,2.63,0,0,1,187,82a4.71,4.71,0,0,1,.1,1.18L190,83.1a3,3,0,0,0-.08-1.32,3.67,3.67,0,0,0-2.78-2.48l0-.07,1.77-.65-.64-2.67Zm3,19.51-.16,3.83,4.05,1c1,.23,2,.42,3.13.64v.09c-1.17.14-2.16.27-3.17.43l-4.13.74-.16,3.92,10.61,3,.13-3.11-4.76-1.12c-1.05-.25-2.12-.39-3.19-.61v-.09c1.09-.18,2.17-.33,3.24-.53l4.85-.94.12-2.9-4.76-1.3c-1-.31-2.11-.53-3.17-.76v-.1c1.08-.12,2.16-.19,3.22-.31l4.84-.76.14-3.32Zm-1.12,15.26-.76,3.25,7,1.63a2.55,2.55,0,0,1,.52,2c-.2.83-.71,1.11-2.14.78l-6.07-1.41-.76,3.27,6.47,1.51c2.61.6,4.47,0,5-2.27a4.82,4.82,0,0,0-.67-3.53l1.82.58,3.53.83.76-3.26Zm-5.11,16.45a5.65,5.65,0,1,0,7.55-2.6l-.36-.16a5.29,5.29,0,0,0-7.06,2.46l-.13.3Zm2.52,1c.47-1.18,1.74-1.27,3.38-.6s2.5,1.62,2,2.8-1.73,1.25-3.39.57-2.48-1.62-2-2.78Zm-13.69,18.84-2.59,2.82,2.43,3.41c.61.82,1.23,1.59,2,2.5l-.06.07c-1-.65-1.83-1.19-2.71-1.71l-3.63-2.1-2.65,2.9,6.21,9.12,2.1-2.3-2.92-3.93c-.64-.87-1.37-1.67-2.05-2.52l.06-.07c.95.56,1.87,1.15,2.81,1.68l4.33,2.4,2-2.14-2.82-4.06c-.58-.9-1.28-1.76-1.94-2.63l.06-.07c.91.6,1.78,1.25,2.67,1.83l4.2,2.54,2.25-2.45Zm-13,12.37a4.58,4.58,0,0,0-1.64,2.93l-.06,0-.85-.71-2.17,1.66,3.68,4.85c2,2.68,4.21,3,6.42,1.29a9.08,9.08,0,0,0,2.83-3.92l-2.27-1.06a5.84,5.84,0,0,1-1.67,2.45,1.39,1.39,0,0,1-2,.07,1.37,1.37,0,0,1-.16-.18c3.06-2.89,3.73-4.94,2.36-6.75a3.1,3.1,0,0,0-4.3-.82Zm.66,2.77a1,1,0,0,1,1.35-.09l.12.13c.46.6.28,1.49-1.21,3l-1-1.36a2.08,2.08,0,0,1,.78-1.66Zm-7.71,2.68-2.94,1.6,3.42,6.3a2.5,2.5,0,0,1-1.18,1.73c-.74.41-1.3.22-2-1.08l-3-5.47-2.95,1.6,3.17,5.84c1.28,2.35,3,3.35,5,2.24a4.84,4.84,0,0,0,2.25-3l.07,0,.84,1.07,2.4-1.3Zm-15.27,7a7.71,7.71,0,0,0-2.13,1.24l1.35,2.07a3.77,3.77,0,0,1,.85-.53c.74-.28,1.44,0,1.86,1.07l1.45,3.83-2.36.9.93,2.45,2.37-.9,1,2.64,2.61-1-.66-2.78,1.49-.71-.88-2.32-1.36.51-1.47-3.86C132.21,174.52,130.59,173.32,128.06,174.28Zm-7.22,2.2c-2.83.71-4,2.57-3.48,4.49s2.11,2.27,3.53,2.44c1.18.11,2.19.11,2.35.73s-.18.85-.91,1a4.06,4.06,0,0,1-2.38-.34l-1,2.31a6.2,6.2,0,0,0,4.07.4c2.41-.61,3.69-2.34,3.19-4.32-.43-1.72-2.11-2.19-3.47-2.38-1.17-.15-2.25-.19-2.4-.81s.16-.92,1-1.13a4.58,4.58,0,0,1,2.91.43l.93-2.39a6.88,6.88,0,0,0-4.38-.46ZM96.76,178.8a7.75,7.75,0,0,0-2.44.3l.43,2.43a4.09,4.09,0,0,1,1-.15c.79,0,1.34.53,1.29,1.71l-.15,4.09-2.53-.1-.1,2.62,2.53.1-.11,2.83,2.79.11.48-2.82,1.65-.07.1-2.48-1.45-.06.15-4.13C100.49,180.65,99.46,178.91,96.76,178.8Zm-8.9-1A5.65,5.65,0,1,0,92,184.59c0-.13,0-.25.08-.38a5.29,5.29,0,0,0-3.93-6.36l-.32-.07Zm-.46,2.68c1.25.21,1.61,1.43,1.32,3.18s-1.06,2.78-2.3,2.57-1.6-1.42-1.3-3.19S86.17,180.25,87.4,180.46Zm-18.23-8.31a4.2,4.2,0,0,0-1.64-.39l-.6,2.43a1.58,1.58,0,0,1,.37.11c.24.1.47.43.2,1.07l-4.58,10.78L66,187.46l4.53-10.66c.88-2.07.77-3.75-1.35-4.65Zm-7.34-3.74a7,7,0,0,0-3.95-.83l0,2.31a4.43,4.43,0,0,1,2.31.52,2.47,2.47,0,0,1,1.31,3.13L56,170.44a5.69,5.69,0,0,0-.84,1.17c-1.45,2.57-1.24,5.26,1.45,6.79,2.27,1.28,5.5.63,7.22-2.4a5.25,5.25,0,0,0-1.45-7.28,5.64,5.64,0,0,0-.53-.31Zm-1.39,7.06a2,2,0,0,1-2.63.66,1.61,1.61,0,0,1-.76-2.14,1.32,1.32,0,0,1,.2-.32ZM54.1,163.36a4.54,4.54,0,0,0-3.25-.83l-.06-.05.46-1-2.15-1.67-3.73,4.81c-2.06,2.66-1.77,4.84.42,6.54a8.92,8.92,0,0,0,4.52,1.71l.43-2.46a5.86,5.86,0,0,1-2.8-1,1.39,1.39,0,0,1-.58-1.87l.14-.21c3.59,2.21,5.74,2.33,7.13.54a3.11,3.11,0,0,0-.33-4.38Zm-2.5,1.35A1,1,0,0,1,52,166a1.3,1.3,0,0,1-.1.15c-.46.6-1.37.66-3.2-.4l1-1.35A2.09,2.09,0,0,1,51.6,164.71Zm-4.52-6.81-2.35-2.37-4.35,4.32a2.61,2.61,0,0,1-3-.29,4.09,4.09,0,0,1-.7-.95l-2.45,1.64a3,3,0,0,0,.76,1.08,3.67,3.67,0,0,0,3.66.67l.06.05-1.17,1.48,1.93,1.94Zm-6.26-6.41-2-2.67-5.72,4.33a2.56,2.56,0,0,1-1.89-.91c-.51-.68-.41-1.25.77-2.14l5-3.76-2-2.68-5.3,4c-2.14,1.62-2.88,3.43-1.47,5.29a4.89,4.89,0,0,0,3.36,1.77l0,.06-.93,1L32.25,158Zm-13.2-22.67a5.37,5.37,0,0,0-2.5-2.79l-1.56,2A3.12,3.12,0,0,1,25,129.5c.5,1.22-.19,2.54-1.83,3.22s-3.06.25-3.61-1.11a2,2,0,0,1,0-1.5L17,129.47a4.69,4.69,0,0,0,.12,3.34,5.43,5.43,0,0,0,7,3.24,3.52,3.52,0,0,0,.39-.16C27.73,134.55,28.77,131.61,27.62,128.82ZM24.5,119.1a5.27,5.27,0,0,0-6.43-3.8l-.3.08a5.27,5.27,0,0,0,1.84,10.38,6.38,6.38,0,0,0,.72-.19,5.28,5.28,0,0,0,4.24-6.15C24.55,119.31,24.53,119.21,24.5,119.1Zm-2.63.66c.3,1.23-.66,2-2.38,2.48s-3,.17-3.28-1.06.66-2,2.4-2.47,3-.15,3.26,1.05Zm.66-11.84A4.14,4.14,0,0,0,21,105.24v-.08l1-.33-.25-2.73-15,1.34.3,3.37,3.57-.32,1.58-.28a3.41,3.41,0,0,0-.87,2.68c.2,2.22,2.5,4.23,6,3.91s5.45-2.21,5.21-4.87Zm-2.82-.63c.1,1.14-.7,1.9-2.75,2.08s-2.91-.59-3-1.51a2.41,2.41,0,0,1,.49-1.72l4.21-.37a1.73,1.73,0,0,1,1.06,1.52Zm2.14-8.09.09-3.34-10.73-.29-.09,3.34Zm-12.18-2A1.74,1.74,0,1,0,7.9,99.07a1.76,1.76,0,0,0,1.78-1.73S9.67,97.24,9.67,97.19ZM22,93l.48-3.3-7.1-1a2.55,2.55,0,0,1-.68-2c.12-.84.61-1.17,2.07-1l6.16.9.48-3.33-6.56-1c-2.65-.39-4.46.36-4.8,2.68a4.89,4.89,0,0,0,1.09,3.63v.07l-1.36,0-.4,2.71Zm7.52-14.78c1.1-3.57.27-6.27-1.9-6.94-1.85-.58-3.07.61-3.85,3.13L23.27,76c-.34,1.1-.68,1.45-1.15,1.3a.88.88,0,0,1-.62-.55,4.72,4.72,0,0,0,.56-1.15c.7-2.27.22-4.41-2.18-5.15a2.73,2.73,0,0,0-1.33-.1L19,68.76,16.72,68l-1.17,3.77a5.24,5.24,0,0,0-.75,1.54c-.69,2.22-.1,4.67,2.4,5.44a3.41,3.41,0,0,0,3.07-.56l.08,0A2.58,2.58,0,0,0,21.9,80,2.14,2.14,0,0,0,24,79.59l.09,0a2.38,2.38,0,0,0,1.57,2.09c1.83.57,3.18-1.15,3.91-3.51ZM20.13,75a1.43,1.43,0,0,1-1.81.88l-.2-.08a1.39,1.39,0,1,1,.8-2.59,1.4,1.4,0,0,1,1.25,1.56A1.85,1.85,0,0,1,20.13,75Zm7.55,2.06c-.4,1.32-1,2.07-1.75,1.85a1.28,1.28,0,0,1-.77-.77,6.24,6.24,0,0,0,.58-1.42l.3-1c.3-.95.59-1.45,1.2-1.26s.85,1.27.44,2.59Zm1.24-9.4a2.09,2.09,0,1,0-2.8,1l.07,0a2,2,0,0,0,2.7-.91l0-.07Z"/></svg>